PathFileType  4	(X/Y/Z) c:\opencap-core-main\examples\Data\81a20db3-8b24-463d-8a5a-854c37a24678\MarkerData\PreAugmentation
DataRate	CameraRate	NumFrames	NumMarkers	Units	OrigDataRate	OrigDataStartFrame	OrigNumFrames
60.0	60.0	12	20	m	60.0	223	592
Frame#	Time	Neck			RShoulder			RElbow			RWrist			LShoulder			LElbow			LWrist			midHip			RHip			RKnee			RAnkle			LHip			LKnee			LAnkle			LBigToe			LSmallToe			LHeel			RBigToe			RSmallToe			RHeel			
		X1	Y1	Z1	X2	Y2	Z2	X3	Y3	Z3	X4	Y4	Z4	X5	Y5	Z5	X6	Y6	Z6	X7	Y7	Z7	X8	Y8	Z8	X9	Y9	Z9	X10	Y10	Z10	X11	Y11	Z11	X12	Y12	Z12	X13	Y13	Z13	X14	Y14	Z14	X15	Y15	Z15	X16	Y16	Z16	X17	Y17	Z17	X18	Y18	Z18	X19	Y19	Z19	X20	Y20	Z20	

223	3.7000000	-0.0091800	1.2514400	-0.1305200	-0.0137500	1.2597600	0.0668800	0.0360500	1.0500100	0.1749700	0.2572700	1.1401400	0.1233700	-0.0211400	1.2471900	-0.3451900	0.0681500	1.0245000	-0.3740800	0.2915100	1.1457800	-0.3249000	0.0369600	0.7112700	-0.1431500	0.0431400	0.7103400	-0.0144400	0.0198400	0.2974000	-0.0172000	-0.0247900	-0.1402300	0.0374200	0.0292600	0.7142000	-0.2589000	0.0175300	0.3061000	-0.2132600	-0.0367600	-0.1344200	-0.2458000	0.1365500	-0.2115800	-0.2712400	0.1058200	-0.2019600	-0.3407400	-0.0680900	-0.1769600	-0.2565700	0.1502500	-0.1959600	0.0457700	0.1255500	-0.1885000	0.0926900	-0.0649600	-0.1927900	0.0382000
224	3.7166667	-0.0120600	1.2515600	-0.1352500	-0.0107700	1.2614000	0.0614100	0.0402900	1.0655300	0.1794100	0.2574900	1.1525700	0.1246700	-0.0209100	1.2472000	-0.3446100	0.0714600	1.0334400	-0.3787500	0.2886200	1.1510400	-0.3268500	0.0365700	0.7074900	-0.1421000	0.0431800	0.7098800	-0.0146000	0.0217800	0.2979200	-0.0146500	-0.0247400	-0.1402300	0.0374700	0.0308500	0.7139200	-0.2613500	0.0175400	0.3061500	-0.2132900	-0.0397100	-0.1353400	-0.2495100	0.1365100	-0.2115800	-0.2712600	0.1058000	-0.2019600	-0.3407500	-0.0680900	-0.1769800	-0.2565700	0.1502400	-0.1959700	0.0457900	0.1255200	-0.1885000	0.0926900	-0.0648900	-0.1928800	0.0381800
225	3.7333333	-0.0138500	1.2515700	-0.1380400	-0.0112000	1.2611700	0.0615500	0.0454900	1.0671700	0.1795200	0.2534800	1.1550700	0.1178000	-0.0206400	1.2472600	-0.3440500	0.0694200	1.0373700	-0.3764400	0.2840200	1.1551100	-0.3293100	0.0367100	0.7057200	-0.1427200	0.0432300	0.7068900	-0.0155000	0.0232000	0.2982100	-0.0128600	-0.0260600	-0.1384400	0.0381100	0.0325700	0.7110500	-0.2643500	0.0176500	0.3066200	-0.2136400	-0.0414200	-0.1359300	-0.2516900	0.1365500	-0.2116200	-0.2712500	0.1055400	-0.2004900	-0.3396100	-0.0681200	-0.1770700	-0.2566200	0.1502700	-0.1959700	0.0458400	0.1255200	-0.1884900	0.0927200	-0.0649300	-0.1928600	0.0381800
226	3.7500000	-0.0139400	1.2513000	-0.1379400	-0.0137600	1.2581700	0.0663400	0.0460300	1.0673500	0.1698800	0.2417300	1.1529500	0.0969300	-0.0207000	1.2471000	-0.3449800	0.0665100	1.0403200	-0.3721800	0.2853600	1.1580000	-0.3312600	0.0368900	0.7062700	-0.1433900	0.0433200	0.7058400	-0.0160500	0.0218700	0.2977800	-0.0146300	-0.0292400	-0.1364200	0.0387600	0.0336100	0.7096700	-0.2660600	0.0176200	0.3061700	-0.2132600	-0.0414500	-0.1359500	-0.2517100	0.1365700	-0.2116400	-0.2712100	0.1050700	-0.1979100	-0.3376200	-0.0681500	-0.1771200	-0.2566500	0.1502900	-0.1959200	0.0459100	0.1255500	-0.1884900	0.0927300	-0.0648200	-0.1929900	0.0382100
227	3.7666667	-0.0134300	1.2512900	-0.1368900	-0.0152500	1.2531500	0.0715900	0.0422900	1.0616300	0.1550700	0.2320800	1.1530900	0.0795700	-0.0224600	1.2472500	-0.3477100	0.0666500	1.0444200	-0.3722500	0.2921500	1.1616700	-0.3320400	0.0368900	0.7058600	-0.1428100	0.0434700	0.7068000	-0.0154300	0.0199200	0.2972100	-0.0171800	-0.0329500	-0.1373600	0.0387100	0.0345900	0.7112900	-0.2671600	0.0174900	0.3049100	-0.2123500	-0.0411800	-0.1358700	-0.2513400	0.1365800	-0.2116400	-0.2711900	0.1047900	-0.1961600	-0.3363000	-0.0682000	-0.1771200	-0.2566700	0.1502800	-0.1959100	0.0458900	0.1255500	-0.1885000	0.0927300	-0.0649100	-0.1929100	0.0382100
228	3.7833333	-0.0135200	1.2528200	-0.1368400	-0.0172700	1.2503800	0.0741300	0.0398800	1.0482500	0.1467800	0.2317900	1.1511000	0.0788800	-0.0256400	1.2490500	-0.3468000	0.0690100	1.0489600	-0.3758900	0.2968400	1.1667100	-0.3374600	0.0367500	0.7074800	-0.1423400	0.0432300	0.7087000	-0.0149600	0.0195400	0.2971300	-0.0176600	-0.0344500	-0.1404300	0.0395800	0.0344700	0.7124400	-0.2669000	0.0175100	0.3053300	-0.2127300	-0.0411600	-0.1358700	-0.2513500	0.1365400	-0.2115300	-0.2712300	0.1047700	-0.1960700	-0.3363600	-0.0681900	-0.1771400	-0.2566800	0.1502700	-0.1962200	0.0456200	0.1255400	-0.1885200	0.0927500	-0.0649800	-0.1928500	0.0382200
229	3.8000000	-0.0154500	1.2554400	-0.1397200	-0.0221200	1.2518600	0.0695900	0.0399000	1.0521000	0.1466900	0.2287500	1.1570900	0.0739600	-0.0276300	1.2520300	-0.3395800	0.0730600	1.0575500	-0.3825100	0.2947200	1.1725200	-0.3479400	0.0368400	0.7112000	-0.1431000	0.0433000	0.7080000	-0.0155100	0.0198600	0.2971700	-0.0172700	-0.0329200	-0.1417800	0.0423200	0.0334300	0.7113600	-0.2657400	0.0177300	0.3074800	-0.2143700	-0.0412200	-0.1358400	-0.2514300	0.1366700	-0.2115400	-0.2713000	0.1052100	-0.1978400	-0.3377600	-0.0682000	-0.1771200	-0.2566700	0.1502600	-0.1962500	0.0455700	0.1255200	-0.1885000	0.0927900	-0.0649700	-0.1928600	0.0382400
230	3.8166667	-0.0183200	1.2571300	-0.1445200	-0.0256000	1.2548300	0.0606200	0.0416100	1.0716000	0.1460000	0.2250100	1.1684400	0.0671600	-0.0280100	1.2538500	-0.3339500	0.0740000	1.0633600	-0.3842500	0.2902400	1.1772200	-0.3514600	0.0369800	0.7131900	-0.1439200	0.0433700	0.7078100	-0.0156500	0.0198300	0.2972000	-0.0173000	-0.0313200	-0.1412100	0.0446000	0.0325900	0.7113100	-0.2645200	0.0178300	0.3080700	-0.2148800	-0.0412000	-0.1358500	-0.2514400	0.1366300	-0.2114000	-0.2713700	0.1057100	-0.2003500	-0.3397800	-0.0681900	-0.1771200	-0.2566800	0.1502000	-0.1945000	0.0470300	0.1255200	-0.1884800	0.0928200	-0.0649300	-0.1929000	0.0382600
231	3.8333333	-0.0194900	1.2570900	-0.1473100	-0.0242700	1.2561300	0.0575400	0.0445700	1.0610700	0.1411400	0.2306900	1.1740400	0.0761600	-0.0293600	1.2537900	-0.3361200	0.0688400	1.0635300	-0.3765400	0.2883300	1.1784300	-0.3480600	0.0369500	0.7131700	-0.1440000	0.0431000	0.7105200	-0.0146700	0.0197600	0.2972100	-0.0173900	-0.0309900	-0.1408000	0.0447300	0.0309500	0.7135000	-0.2616100	0.0176900	0.3067800	-0.2138500	-0.0411900	-0.1358700	-0.2514400	0.1366900	-0.2114400	-0.2714000	0.1060100	-0.2018300	-0.3409200	-0.0681800	-0.1771500	-0.2567100	0.1501200	-0.1913600	0.0497000	0.1255200	-0.1884600	0.0928300	-0.0649200	-0.1929100	0.0382700
232	3.8500000	-0.0202500	1.2568400	-0.1473700	-0.0224700	1.2560400	0.0593100	0.0430100	1.0646900	0.1336900	0.2320300	1.1804900	0.0777600	-0.0320400	1.2533700	-0.3416400	0.0638100	1.0668700	-0.3692400	0.2860300	1.1824600	-0.3523500	0.0369600	0.7130900	-0.1440300	0.0430000	0.7126000	-0.0138800	0.0201400	0.2972700	-0.0169100	-0.0292900	-0.1405200	0.0428200	0.0288400	0.7151600	-0.2582900	0.0174200	0.3050600	-0.2122700	-0.0412300	-0.1358400	-0.2514600	0.1366400	-0.2114400	-0.2714000	0.1059800	-0.2018500	-0.3409100	-0.0681800	-0.1771900	-0.2567700	0.1501000	-0.1899900	0.0508900	0.1255200	-0.1884500	0.0928300	-0.0649000	-0.1929500	0.0382400
233	3.8666667	-0.0235200	1.2569800	-0.1470100	-0.0238200	1.2558300	0.0575500	0.0416100	1.0631300	0.1264000	0.2282200	1.1881700	0.0713300	-0.0336700	1.2535000	-0.3444000	0.0631600	1.0705600	-0.3684300	0.2824300	1.1825500	-0.3621500	0.0368700	0.7129900	-0.1439300	0.0429800	0.7121200	-0.0137000	0.0200500	0.2972800	-0.0169600	-0.0263500	-0.1401400	0.0394600	0.0284300	0.7152100	-0.2578700	0.0171800	0.3028300	-0.2105900	-0.0412400	-0.1358500	-0.2515000	0.1365900	-0.2114300	-0.2714000	0.1059100	-0.2015600	-0.3406500	-0.0681500	-0.1771800	-0.2567600	0.1501600	-0.1916200	0.0495000	0.1255400	-0.1884500	0.0928400	-0.0648800	-0.1929900	0.0382000
234	3.8833333	-0.0253700	1.2570500	-0.1470200	-0.0252100	1.2557200	0.0556700	0.0459700	1.0736900	0.1259300	0.2345200	1.1989600	0.0815900	-0.0336300	1.2533500	-0.3443800	0.0638900	1.0719200	-0.3696100	0.2816700	1.1857400	-0.3642200	0.0364600	0.7111100	-0.1427200	0.0430200	0.7083500	-0.0138200	0.0177700	0.2966200	-0.0199400	-0.0262300	-0.1405100	0.0352400	0.0307100	0.7150300	-0.2613300	0.0174300	0.2994800	-0.2097400	-0.0412400	-0.1358800	-0.2515100	0.1366800	-0.2115200	-0.2713900	0.1059300	-0.2015700	-0.3406000	-0.0681600	-0.1769500	-0.2565700	0.1502100	-0.1930700	0.0482900	0.1255400	-0.1884400	0.0928500	-0.0648500	-0.1930600	0.0381700
